<?xml version="1.0" encoding="utf-8"?>
<!-- Generator: Adobe Illustrator 19.1.0, SVG Export Plug-In . SVG Version: 6.00 Build 0)  -->
<svg version="1.1" id="VESPAS_logo_vectorisé" xmlns="http://www.w3.org/2000/svg" xmlns:xlink="http://www.w3.org/1999/xlink"
	 x="0px" y="0px" viewBox="0 0 282 414" style="enable-background:new 0 0 282 414;" xml:space="preserve">
<style type="text/css">
	.st0{stroke:#979888;stroke-width:5.6693;stroke-miterlimit:10;}
	.st1{fill:#AAAA00;}
	.st2{fill:#DEDC00;}
	.st3{fill:#737500;}
	.st4{fill:#989900;}
	.st5{fill:none;}
	.st6{fill:#FFFFFF;}
	.st7{fill:#8D004C;}
	.st8{fill:#A00057;}
	.st9{fill:#C6C6C6;}
	.st10{opacity:0.5;fill:#DEDC00;}
	.st11{fill:#E6007E;}
	.st12{opacity:0.5;fill:#FFED00;}
	.st13{opacity:0.5;fill:#E6007E;}
	.st14{fill:#C8C8C8;}
	.st15{opacity:0.5;fill:#C8C8C8;}
</style>
<g>
	<path class="st0" d="M240.1,353.6c10.9,1.6,26.9,3.6,26.9,3.6s-19.4-10.2-30.9-14.5c-4-9.5-9.5-21.2-9.5-21.2l13.4,0.1
		c0-9.4,0.1-17.2,0.1-17.2h-14.5l2.7-17.7c-26.4-4-53.4-6.2-80.8-6.4c6.4-1.4,12.4-3.9,17.8-7.3c14.8-3.4,25.7-16.6,25.7-32.4
		c0-18.4-14.9-33.3-33.3-33.3c-18.4,0-33.3,14.9-33.3,33.3c0,7.6,2.6,14.6,6.9,20.2c-7-7-11.3-16.6-11.3-27.2c0-1.8,0.1-3.6,0.4-5.3
		c2.3-16.9,15.6-30.3,32.4-32.8c-0.1-1.2-0.3-2.3-0.6-3.5c2.3,2.6,5.6,4.3,9.3,4.3c4.3,0,8.1-2.2,10.3-5.6c-0.2,5.1,4.7,8.7,6.2,9.6
		c0.1,0.1,0.2,0.1,0.4,0.2c0.7,0.4,1.4,0.9,2.1,1.3c0.1,0.1,0.3,0.2,0.4,0.3c0.8,0.5,1.5,1.1,2.2,1.7c0,0,0,0,0,0
		c0.7,0.6,1.5,1.3,2.2,1.9c0.1,0.1,0.2,0.3,0.4,0.4c0.5,0.5,1,1.1,1.5,1.6c0.2,0.2,0.4,0.4,0.6,0.6c0.4,0.5,0.9,1,1.3,1.6
		c0.2,0.2,0.3,0.4,0.5,0.6c0.5,0.7,1.1,1.5,1.6,2.3c0.8,1.2,1.5,2.5,2.1,3.8c1.4,2.8,2.4,5.7,3.1,8.9c0.5,2.5,0.8,5,0.8,7.6
		c5.8-5.3,23.4-24.2,11-48c0,0-2.5-5.8-8.1-9.3c52.7,6.3,54,34.6,53.5,40.3c-0.5,5.7-6.8,16.7-0.2,15c6.7-1.7,6.2-14.2,5.8-14.8
		c-3.9-36.5-52-41.9-65.2-42.8c-1.3-0.2-2.6-0.3-4-0.3c-5.5,0.3-9.6,1.9-12.5,4.6c-30-71.8-126.8-170-126.8-170
		c-2.1,31.9-0.3,51.6,3.1,63.7c-11.1-7.5-15.6-8.2-15.6-8.2c-7.1,72.1,71.3,101.6,114,112.2c-1.8,2.2-2.9,5-2.9,8.1
		c0,0.1,0,0.3,0,0.4c-5.1-9-14.7-15.1-25.8-15.1c-2.2,0-4.4,0.3-6.5,0.7c-4,0.9-7.7,2.6-10.9,4.9c-17.1,10-28.5,28.4-28.5,49.6
		c0,27.7,19.7,50.9,45.8,56.3c-23.5,0.7-46.7,2.8-69.4,6.2l2.7,17.7H42l7.5,37.3l-0.1,0c-10.6,3.3-34,15.6-34,15.6
		s23.3-2.8,32.8-4.6l3.5-0.3l3.7,18.4c3.7-0.6,7.3-1.2,11-1.8l4.1,26.9c19.4-2.9,39.1-4.6,59.2-5.1l11.4,16.9l11.4-16.9
		c20.1,0.5,39.8,2.2,59.2,5.1l4.1-26.9c5.7,0.9,11.5,1.8,17.1,2.9l1.3-1.1c2.6-2.2,4.6-6,5.5-10.1c0.5-2.2,0.4-4.5,0.4-6.7
		C240.1,353.9,240.1,353.7,240.1,353.6z"/>
	<g>
		<g>
			<path class="st1" d="M135.3,226.2c0-4.4,0.8-8.6,2.4-12.4c-8,6.1-13.2,15.7-13.2,26.6c0,18.4,14.9,33.3,33.3,33.3
				c14,0,26-8.6,30.9-20.9c-5.6,4.2-12.5,6.7-20.1,6.7C150.2,259.5,135.3,244.6,135.3,226.2z"/>
		</g>
		<g>
			<path class="st2" d="M157.8,207.1c-7.5,0-14.5,2.5-20.1,6.7c-1.5,3.8-2.4,8-2.4,12.4c0,18.4,14.9,33.3,33.3,33.3
				c7.5,0,14.5-2.5,20.1-6.7c1.5-3.8,2.4-8,2.4-12.4C191.1,222,176.2,207.1,157.8,207.1z"/>
		</g>
	</g>
	<g>
		<g>
			<g>
				<path class="st3" d="M184.2,259c-0.6,0.8-1.2,1-2.1,0.7c-1-0.3-1.2-1-1.1-1.9c0-0.2,0.1-0.5,0.1-0.7c-0.5,0.2-1,0.4-1.5,0.6
					c0,0.2,0,0.5-0.1,0.7c-0.1,0.9-0.6,1.9-1.3,2.4c-3.1,2.2-6.4,4.3-9.6,6.3c-0.5,0.3-1.3,0.4-1.9,0.2c-2.2-0.6-4.4-1.3-6.6-2
					c-1.1-0.3-1.7-1.1-1.6-2.3c0.1-1.2,0-2.4,0-4.1c0-0.4-0.1-0.7-0.1-1c-0.5-0.2-1-0.3-1.5-0.5c0,0.8,0,1.5,0,2.3c0,0,0,0,0,0
					c0,1.3,0,2.5,0,3.8c0,1-0.4,1.5-1.3,1.7c-2.7,0.7-5.4,1.5-8.1,2.1c-0.6,0.1-1.4,0-1.8-0.4c-3.5-2.5-7.1-5-10.5-7.7
					c-0.6-0.4-1-1.4-1-2.2c0-2.5,0.3-5,0.4-7.5c0.1-1.3,0.8-1.9,1.9-2.2c1.8-0.5,3.6-1,5.4-1.5c-0.3-0.4-0.6-0.9-1-1.4
					c-1.7,0.4-3.4,0.9-5.1,1.4c-1.1,0.4-2.1,0.1-2.7-0.7c-1.7-2.4-3.3-4.9-4.8-7.4c-0.2-0.4-0.1-1.1,0.1-1.5
					c1.3-3.8,2.7-7.5,4.1-11.3c0.1-0.3,0.3-0.8,0.6-0.9c0.8-0.3,1.6-0.5,2.5-0.8c0.1-0.6,0.1-1.2,0.2-1.8c-0.4,0.1-0.7,0.2-1.1,0.4
					c-1.2,0.4-1.7-0.3-2-1c-0.2-0.5-0.1-1.3,0.2-1.7c1.4-1.7,3-3.2,4.7-4.6c0.1-0.3,0.2-0.5,0.3-0.8c-8,6.1-13.2,15.7-13.2,26.6
					c0,18.4,14.9,33.3,33.3,33.3c14,0,26-8.6,30.9-20.9c-0.5,0.4-1.1,0.8-1.6,1.2C186.3,255.7,185.3,257.3,184.2,259z M124.9,237.2
					c1-3.5,1.8-7.1,3-10.5c0.5-1.7,1.6-3.1,2.5-4.7c0.2,0,0.3,0,0.5,0c0.1,0.5,0.3,1,0.1,1.4c-1.6,4.6-3.2,9.3-4.9,13.9
					c-0.2,0.4-0.8,0.7-1.2,1C124.9,238,124.9,237.6,124.9,237.2z M129.7,257.2c-2.5-3.9-4-8.2-4.5-12.8c-0.1-0.5-0.2-0.9-0.2-1.4
					c0-0.9,0-1.7,0-2.6c2.4-1.2,1.9-1,3.2,0.8c1.4,2,2.8,4,4.1,6.1c0.4,0.6,0.6,1.5,0.6,2.3c0,2.3-0.3,4.6-0.4,6.9
					c0,1.1-0.9,1.2-1.5,1.3C130.6,258,129.9,257.6,129.7,257.2z M145.3,270.5c-5.5-2.2-10.1-5.8-13.7-10.5c0-0.2,0.1-0.3,0.1-0.5
					c0.5,0.1,1.1,0.1,1.5,0.3c3.9,2.9,7.7,5.9,11.5,8.9c0.4,0.3,0.6,1,0.9,1.5C145.5,270.3,145.4,270.4,145.3,270.5z M165.9,271.7
					c-1.9,0.4-3.8,0.7-5.7,1.1c-1.9,0-3.9,0-5.8,0c-2.1-0.5-4.2-0.9-6.3-1.4c-0.4-0.1-1-0.7-1-1c0-0.7-0.1-1.5,1-1.7
					c2.9-0.7,5.7-1.5,8.5-2.2c0.5-0.1,1.2-0.1,1.7,0.1c2.5,0.7,5.1,1.5,7.6,2.3c0.4,0.1,0.9,0.6,0.9,1
					C166.8,270.5,167.1,271.5,165.9,271.7z M168.6,270.9c-0.1-0.1-0.3-0.3-0.4-0.4c0.4-0.5,0.7-1.2,1.2-1.6c3.5-2.5,7-5,10.5-7.5
					c0.8-0.6,1.5-0.8,2.5,0C178.5,265.8,174,268.9,168.6,270.9z"/>
			</g>
		</g>
		<g>
			<g>
				<path class="st4" d="M157.8,207.1c-7.5,0-14.5,2.5-20.1,6.7c-0.1,0.3-0.2,0.5-0.3,0.8c3-2.4,6.4-4.1,10.1-5.4
					c1.3-0.4,1.6,0.1,1.6,1.5c-0.1,0.2-0.2,0.6-0.5,1c-1.6,2.1-3,4.2-4.7,6.2c-0.8,0.9-1.9,1.6-3,2c-1.7,0.7-3.5,1.1-5.2,1.6
					c-0.1,0.6-0.1,1.2-0.2,1.8c2.1-0.7,4.3-1.4,6.5-2.1c0.6,0.4,1.3,0.7,1.7,1.3c1.5,2.1,2.9,4.2,4.3,6.3c0.2,0.4,0.3,1,0.1,1.4
					c-1.2,3.7-2.4,7.3-3.6,11c-0.5,1.6-1.5,2.7-3.3,3.1c-0.2,0-0.3,0.1-0.5,0.1c0.3,0.5,0.6,0.9,1,1.4c0.4-0.1,0.8-0.2,1.2-0.3
					c0.6-0.1,1.5,0,2,0.3c3.7,2.6,7.3,5.2,10.8,7.9c0.6,0.4,1,1.4,1.1,2.2c0.1,0.4,0.1,0.9,0.1,1.3c0.5,0.2,1,0.4,1.5,0.5
					c-0.1-3.3,1.1-4.3,3.6-6c2.6-1.8,5.1-3.8,7.5-5.9c1-0.8,2-1,3.2-0.6c1.9,0.6,3.9,1.2,5.8,1.7c1.3,0.3,1.8,1,1.7,2.4
					c-0.3,2.7-0.3,5.4-0.6,8.1c0.5-0.2,1-0.4,1.5-0.6c0.2-1.6,0.3-3.1,0.5-4.7c0.2-2.7,0.8-5.2,2.4-7.4c1.3-1.9,2.4-3.9,3.6-6
					c2.2,2.4,2.5,5,1.8,7.8c-0.6,2.5-1.4,4.9-2.4,7.2c0.6-0.4,1.1-0.8,1.6-1.2c1.5-3.8,2.4-8,2.4-12.4
					C191.1,222,176.2,207.1,157.8,207.1z M167.5,210c0.3-0.3,1.1-0.3,1.6-0.2c5.4,2.1,9.9,5.3,13.5,9.7c0.4,0.5,0.7,1.2,0.8,1.5
					c-0.1,2.1-0.6,2.4-2.1,1.9c-2.4-0.9-4.8-1.7-7.1-2.8c-1.2-0.6-2.4-1.7-3.2-2.7c-1.4-1.7-2.4-3.6-3.7-5.3
					C166.7,211.2,167,210.5,167.5,210z M151.3,208.3c1.3-0.2,2.5-0.4,3.8-0.6c2.9-0.2,3.5,0,5.2,0c1.5,0.3,3,0.5,4.5,0.8
					c0.4,0.1,0.6,0.5,0.9,0.8c-0.3,0.2-0.7,0.7-1,0.7c-4.1-0.1-8.3-0.3-12.4-0.5c-0.4,0-0.8-0.5-1.2-0.7
					C151.2,208.6,151.2,208.5,151.3,208.3z M144.9,221.2c-0.3-0.4-0.3-1.3-0.1-1.7c1.9-2.6,3.8-5.1,5.8-7.5c0.3-0.4,1-0.6,1.5-0.6
					c3.9,0,7.9,0.1,11.8,0.1c1,0,1.6,0.3,2.1,1.1c1.4,2.3,2.9,4.5,4.4,6.8c0.6,0.9,0.6,1.7-0.1,2.6c-1.5,1.8-2.8,3.8-4.3,5.6
					c-0.4,0.5-1.3,0.9-2,1c-2,0.1-4,0-6.1,0c0,0,0,0,0,0c-1.8,0-3.6-0.1-5.3,0c-1.9,0.2-3.3-0.7-4.3-2.1
					C147.1,224.8,146,223,144.9,221.2z M168.5,244.9c-3.3,2.6-6.6,5.1-9.9,7.7c-0.6,0.5-1.1,0.5-1.8,0c-3.4-2.5-6.8-5-10.3-7.5
					c-0.9-0.7-1.3-1.4-0.8-2.6c1.3-3.6,2.5-7.2,3.6-10.8c0.4-1.2,1.1-1.6,2.2-1.6c2,0,4.1,0,6.1,0c0,0,0,0,0,0c1.9,0,3.9,0.1,5.8,0
					c1.2,0,1.9,0.5,2.2,1.6c1.2,3.7,2.3,7.3,3.5,11C169.5,243.7,169.3,244.3,168.5,244.9z M185.5,239c-1.1,2.2-2.4,4.3-3.6,6.4
					c-0.4,0.8-0.9,0.9-1.8,0.7c-2.5-0.8-5-1.5-7.5-2.2c-1.1-0.3-1.7-0.9-2.1-2.1c-1-3.4-2.2-6.8-3.4-10.1c-0.5-1.3-0.3-2.4,0.5-3.5
					c1.3-1.8,2.7-3.5,4-5.3c0.8-1.1,1.8-1.3,3.1-0.8c2.4,1,4.8,1.9,7.2,3c0.4,0.1,0.8,0.5,0.9,0.8c1.2,3.1,2.3,6.3,3.5,9.5
					c0.1,0.2,0.1,0.5,0.2,0.9C186.3,237,186,238.1,185.5,239z M188,235.9c-1.2-3.4-2.4-6.9-3.4-10.4c-0.2-0.8,0-1.6,0.2-2.5
					c2.1,2.6,3.3,5.5,4.1,8.6c0.5,1.9,0.8,3.9,1.2,5.9c0,0.8,0,1.5,0,2.3C189.3,238.5,188.5,237.3,188,235.9z"/>
			</g>
		</g>
	</g>
	<path d="M240.1,353.6c10.9,1.6,26.9,3.6,26.9,3.6s-19.4-10.2-30.9-14.5c-4-9.5-9.5-21.2-9.5-21.2l13.4,0.1c0-9.4,0.1-17.2,0.1-17.2
		h-14.5l2.7-17.7c-28.4-4.3-57.6-6.5-87.2-6.5s-58.8,2.2-87.2,6.5l2.7,17.7H42l7.5,37.3l-0.1,0c-10.6,3.3-34,15.6-34,15.6
		s23.3-2.8,32.8-4.6l3.5-0.3l3.7,18.4c3.7-0.6,7.3-1.2,11-1.8l4.1,26.9c19.4-2.9,39.1-4.6,59.2-5.1l11.4,16.9l11.4-16.9
		c20.1,0.5,39.8,2.2,59.2,5.1l4.1-26.9c5.7,0.9,11.5,1.8,17.1,2.9l1.3-1.1c2.6-2.2,4.6-6,5.5-10.1c0.5-2.2,0.4-4.5,0.4-6.7
		C240.1,353.9,240.1,353.7,240.1,353.6z"/>
	<g>
		<path class="st5" d="M196.4,225.4c-0.3-3.5-1.5-6.4-3.1-8.9C194.7,219.3,195.7,222.3,196.4,225.4z"/>
		<path class="st6" d="M177.9,180.6c-3.7,5.3-0.1,14,6.8,19c0.2,0.2,0.4,0.3,0.6,0.5c-0.1-0.4-0.1-0.9-0.1-1.3c0-5,3.8-9,8.5-9
			c1,0,2,0.2,2.9,0.6c-1.2-5.8-2.5-9.9-0.7-8.1c4.7,4.9,12.3,16.9,4.5,26.1c-2.3,2.7-3.4,2.2-2.9-1.5c-1.1,0.6-2.4,0.9-3.8,0.9
			c-0.2,0-0.4,0-0.6,0c8,10.5,6.2,20.5,6.2,20.5s7.9-8,9.9-19.9c2.4-14.2-5-32.3-18.4-32.4c-6.3-0.1-10.2,1.5-12.4,4
			c0.1,0.2,0.2,0.5,0.3,0.7C178.7,180.7,178.4,180.7,177.9,180.6z M194.8,184.9C194.8,184.9,194.7,184.9,194.8,184.9
			C194.7,184.9,194.8,184.9,194.8,184.9z"/>
		<path class="st6" d="M178.7,180.7c-0.1-0.2-0.2-0.5-0.3-0.7c-0.2,0.2-0.3,0.4-0.5,0.6C178.4,180.7,178.7,180.7,178.7,180.7z"/>
		<path d="M259.2,216.2c-3.9-36.5-52-41.9-65.2-42.8c-1.3-0.2-2.6-0.3-4-0.3c-5.5,0.3-9.6,1.9-12.5,4.6
			c-30-71.8-126.8-170-126.8-170c-2.1,31.9-0.3,51.6,3.1,63.7c-11.1-7.5-15.6-8.2-15.6-8.2c-7.1,72.1,71.3,101.6,114,112.2
			c-1.8,2.2-2.9,5-2.9,8.1c0,0.1,0,0.3,0,0.4c-5.1-9-14.7-15.1-25.8-15.1c-2.2,0-4.4,0.3-6.5,0.7c-4,0.9-7.7,2.6-10.9,4.9
			c-17.1,10-28.5,28.4-28.5,49.6c0,31.7,25.7,57.4,57.4,57.4c12.5,0,24.1-4,33.6-10.9c-3.1,0.8-6.4,1.3-9.9,1.3
			c-21.3,0-38.6-17.3-38.6-38.6c0-1.8,0.1-3.6,0.4-5.3c2.3-16.9,15.6-30.3,32.4-32.8c-0.1-1.2-0.3-2.3-0.6-3.5
			c2.3,2.6,5.6,4.3,9.3,4.3c4.3,0,8.1-2.2,10.3-5.6c-0.2,5.1,4.7,8.7,6.2,9.6c0.1,0.1,0.2,0.1,0.4,0.2c0.7,0.4,1.4,0.9,2.1,1.3
			c0.1,0.1,0.3,0.2,0.4,0.3c0.8,0.5,1.5,1.1,2.2,1.7c0,0,0,0,0,0c0.7,0.6,1.5,1.3,2.2,1.9c0.1,0.1,0.2,0.3,0.4,0.4
			c0.5,0.5,1,1.1,1.5,1.6c0.2,0.2,0.4,0.4,0.6,0.6c0.4,0.5,0.9,1,1.3,1.6c0.2,0.2,0.3,0.4,0.5,0.6c0.5,0.7,1.1,1.5,1.6,2.3
			c0.8,1.2,1.5,2.5,2.1,3.8c1.6,2.4,2.7,5.4,3.1,8.9c0.5,2.5,0.8,5,0.8,7.6c5.8-5.3,23.4-24.2,11-48c0,0-2.5-5.8-8.1-9.3
			c52.7,6.3,54,34.6,53.5,40.3c-0.5,5.7-6.8,16.7-0.2,15C260,229.4,259.5,216.9,259.2,216.2z"/>
	</g>
	<g>
		<g>
			<path class="st7" d="M124.9,237.2c1-3.5,1.8-7.1,3-10.5c0.5-1.7,1.6-3.1,2.5-4.7c0.2,0,0.3,0,0.5,0c0.1,0.5,0.3,1,0.1,1.4
				c-1.6,4.6-3.2,9.3-4.9,13.9c-0.2,0.4-0.8,0.7-1.2,1C124.9,238,124.9,237.6,124.9,237.2z M145.3,270.5
				c-5.5-2.2-10.1-5.8-13.7-10.5c0-0.2,0.1-0.3,0.1-0.5c0.5,0.1,1.1,0.1,1.5,0.3c3.9,2.9,7.7,5.9,11.5,8.9c0.4,0.3,0.6,1,0.9,1.5
				C145.5,270.3,145.4,270.4,145.3,270.5z M168.6,270.9c-0.1-0.1-0.3-0.3-0.4-0.4c0.4-0.5,0.7-1.2,1.2-1.6c3.5-2.5,7-5,10.5-7.5
				c0.8-0.6,1.5-0.8,2.5,0C178.5,265.8,174,268.9,168.6,270.9z"/>
		</g>
		<g>
			<g>
				<path class="st8" d="M151.3,208.3c1.3-0.2,2.5-0.4,3.8-0.6c2.9-0.2,3.5,0,5.2,0c1.5,0.3,3,0.5,4.5,0.8c0.4,0.1,0.6,0.5,0.9,0.8
					c-0.3,0.2-0.7,0.7-1,0.7c-4.1-0.1-8.3-0.3-12.4-0.5c-0.4,0-0.8-0.5-1.2-0.7C151.2,208.6,151.2,208.5,151.3,208.3z M188,235.9
					c-1.2-3.4-2.4-6.9-3.4-10.4c-0.2-0.8,0-1.6,0.2-2.5c2.1,2.6,3.3,5.5,4.1,8.6c0.5,1.9,0.8,3.9,1.2,5.9c0,0.8,0,1.5,0,2.3
					C189.3,238.5,188.5,237.3,188,235.9z"/>
			</g>
		</g>
	</g>
	<path d="M157.8,210.4c16.5,0,30,13.4,30,30c0,16.5-13.4,30-30,30c-16.5,0-30-13.4-30-30C127.8,223.8,141.2,210.4,157.8,210.4
		 M157.8,207.1c-18.4,0-33.3,14.9-33.3,33.3c0,18.4,14.9,33.3,33.3,33.3c18.4,0,33.3-14.9,33.3-33.3
		C191.1,222,176.2,207.1,157.8,207.1L157.8,207.1z"/>
	<g>
		<g>
			<path class="st5" d="M196.4,225.4c-0.3-3.5-1.5-6.4-3.1-8.9C194.7,219.3,195.7,222.3,196.4,225.4z"/>
			<path class="st6" d="M71.3,86c0,0,0,0,15.9,6.1c15.9,6.1,28.3,17,28.3,17l-45-56.5c0,0,0,0,8.1,6.1c0.9,0.6,1.8,1.4,2.8,2.1
				c10.9,8.3,53.9,59.5,53.9,59.5c-29.1-53-79.4-99.2-79.4-99.2c-14.6,67.9,63.5,132.5,63.5,132.5C77.3,130.9,53.3,78,53.3,78
				l-11.3-5.7c0.6,85.6,121.9,96.4,121.9,96.4C125.6,113.3,71.3,86,71.3,86z"/>
			<path class="st6" d="M177.9,180.6c-3.7,5.3-0.1,14,6.8,19c0.2,0.2,0.4,0.3,0.6,0.5c-0.1-0.4-0.1-0.9-0.1-1.3c0-5,3.8-9,8.5-9
				c1,0,2,0.2,2.9,0.6c-1.2-5.8-2.5-9.9-0.7-8.1c4.7,4.9,12.3,16.9,4.5,26.1c-2.3,2.7-3.4,2.2-2.9-1.5c-1.1,0.6-2.4,0.9-3.8,0.9
				c-0.2,0-0.4,0-0.6,0c8,10.5,6.2,20.5,6.2,20.5s7.9-8,9.9-19.9c2.4-14.2-5-32.3-18.4-32.4c-6.3-0.1-10.2,1.5-12.4,4
				c0.1,0.2,0.2,0.5,0.3,0.7C178.7,180.7,178.4,180.7,177.9,180.6z M194.8,184.9C194.8,184.9,194.7,184.9,194.8,184.9
				C194.7,184.9,194.8,184.9,194.8,184.9z"/>
			<path class="st6" d="M178.7,180.7c-0.1-0.2-0.2-0.5-0.3-0.7c-0.2,0.2-0.3,0.4-0.5,0.6C178.4,180.7,178.7,180.7,178.7,180.7z"/>
			<path class="st6" d="M196.5,193c-1.1,0-2,0.9-2,2c0,1.1,0.9,2,2,2c0.4,0,0.8-0.1,1.1-0.3c-0.1-1.2-0.3-2.4-0.5-3.6
				C196.9,193,196.7,193,196.5,193z"/>
			<path class="st6" d="M113.3,229.4c-6.3-4.9-27.5-22.8-22.3-36.7l25.3,23.4C114.6,220.2,113.6,224.7,113.3,229.4z M118.7,211.3
				c-8.8-15.8-8.2-36.4-8.2-36.4l18,24.7C124.5,202.9,121.2,206.8,118.7,211.3z M41.9,72.3L53.3,78c0,0,24.1,52.9,66.4,75.8
				c0,0-78.1-64.6-63.5-132.5c0,0,50.3,46.2,79.4,99.2c0,0-42.9-51.3-53.9-59.5c-1-0.8-2-1.5-2.8-2.1c-8.1-6.1-8.1-6.1-8.1-6.1
				l45,56.5c0,0-12.4-10.9-28.3-17C71.3,86,71.3,86,71.3,86s54.3,27.3,92.5,82.7C163.8,168.7,42.5,157.9,41.9,72.3z M209.2,208.4
				c-2,11.8-9.9,19.9-9.9,19.9s1.8-10-6.2-20.5c0.2,0,0.4,0,0.6,0c1.4,0,2.6-0.3,3.8-0.9c-0.5,3.7,0.7,4.2,2.9,1.5
				c7.8-9.2,0.3-21.2-4.5-26.1c-1.8-1.9-0.5,2.3,0.7,8.1c-0.9-0.4-1.9-0.6-2.9-0.6c-4.7,0-8.5,4-8.5,9c0,0.5,0,0.9,0.1,1.3
				c-0.2-0.2-0.4-0.3-0.6-0.5c-6.9-5.1-10.5-13.7-6.8-19c0.2-0.2,0.3-0.4,0.5-0.6c2.1-2.5,6.1-4.1,12.4-4
				C204.2,176.1,211.6,194.2,209.2,208.4z M197.7,196.6c-0.3,0.2-0.7,0.3-1.1,0.3c-1.1,0-2-0.9-2-2c0-1.1,0.9-2,2-2
				c0.2,0,0.4,0,0.6,0.1C197.3,194.3,197.5,195.4,197.7,196.6z"/>
			<path class="st2" d="M113.3,229.4c0.3-4.7,1.4-9.1,3-13.3L91,192.7C85.8,206.6,107,224.4,113.3,229.4z"/>
			<path class="st2" d="M118.7,211.3c2.5-4.5,5.9-8.4,9.8-11.7l-18-24.7C110.4,174.9,109.9,195.5,118.7,211.3z"/>
		</g>
		<path class="st6" d="M117.4,251.3c0,0-28,0.3-23.8,6.2c8.4,11.6,35.7,26.1,55.1,16.9C134.3,270,124.3,264.2,117.4,251.3z"/>
		<g>
			<path class="st2" d="M115.2,245.1c-1.5-5-1.8-8.4-1.9-10.2l-30.2-13.6C83.1,221.3,80.6,243.8,115.2,245.1z"/>
		</g>
	</g>
	<g>
		<path class="st5" d="M196.4,225.4c-0.3-3.5-1.5-6.4-3.1-8.9C194.7,219.3,195.7,222.3,196.4,225.4z"/>
		<path class="st6" d="M71.3,86c0,0,0,0,15.9,6.1c15.9,6.1,28.3,17,28.3,17l-45-56.5c0,0,0,0,8.1,6.1c0.9,0.6,1.8,1.4,2.8,2.1
			c10.9,8.3,53.9,59.5,53.9,59.5c-29.1-53-79.4-99.2-79.4-99.2c-14.6,67.9,63.5,132.5,63.5,132.5C77.3,130.9,53.3,78,53.3,78
			l-11.3-5.7c0.6,85.6,121.9,96.4,121.9,96.4C125.6,113.3,71.3,86,71.3,86z"/>
		<path class="st6" d="M177.9,180.6c-3.7,5.3-0.1,14,6.8,19c0.2,0.2,0.4,0.3,0.6,0.5c-0.1-0.4-0.1-0.9-0.1-1.3c0-5,3.8-9,8.5-9
			c1,0,2,0.2,2.9,0.6c-1.2-5.8-2.5-9.9-0.7-8.1c4.7,4.9,12.3,16.9,4.5,26.1c-2.3,2.7-3.4,2.2-2.9-1.5c-1.1,0.6-2.4,0.9-3.8,0.9
			c-0.2,0-0.4,0-0.6,0c8,10.5,6.2,20.5,6.2,20.5s7.9-8,9.9-19.9c2.4-14.2-5-32.3-18.4-32.4c-6.3-0.1-10.2,1.5-12.4,4
			c0.1,0.2,0.2,0.5,0.3,0.7C178.7,180.7,178.4,180.7,177.9,180.6z M194.8,184.9C194.8,184.9,194.7,184.9,194.8,184.9
			C194.7,184.9,194.8,184.9,194.8,184.9z"/>
		<path class="st6" d="M178.7,180.7c-0.1-0.2-0.2-0.5-0.3-0.7c-0.2,0.2-0.3,0.4-0.5,0.6C178.4,180.7,178.7,180.7,178.7,180.7z"/>
		<path class="st6" d="M196.5,193c-1.1,0-2,0.9-2,2c0,1.1,0.9,2,2,2c0.4,0,0.8-0.1,1.1-0.3c-0.1-1.2-0.3-2.4-0.5-3.6
			C196.9,193,196.7,193,196.5,193z"/>
		<path class="st6" d="M113.3,229.4c-6.3-4.9-27.5-22.8-22.3-36.7l25.3,23.4C114.6,220.2,113.6,224.7,113.3,229.4z M118.7,211.3
			c-8.8-15.8-8.2-36.4-8.2-36.4l18,24.7C124.5,202.9,121.2,206.8,118.7,211.3z M41.9,72.3L53.3,78c0,0,24.1,52.9,66.4,75.8
			c0,0-78.1-64.6-63.5-132.5c0,0,50.3,46.2,79.4,99.2c0,0-42.9-51.3-53.9-59.5c-1-0.8-2-1.5-2.8-2.1c-8.1-6.1-8.1-6.1-8.1-6.1
			l45,56.5c0,0-12.4-10.9-28.3-17C71.3,86,71.3,86,71.3,86s54.3,27.3,92.5,82.7C163.8,168.7,42.5,157.9,41.9,72.3z M209.2,208.4
			c-2,11.8-9.9,19.9-9.9,19.9s1.8-10-6.2-20.5c0.2,0,0.4,0,0.6,0c1.4,0,2.6-0.3,3.8-0.9c-0.5,3.7,0.7,4.2,2.9,1.5
			c7.8-9.2,0.3-21.2-4.5-26.1c-1.8-1.9-0.5,2.3,0.7,8.1c-0.9-0.4-1.9-0.6-2.9-0.6c-4.7,0-8.5,4-8.5,9c0,0.5,0,0.9,0.1,1.3
			c-0.2-0.2-0.4-0.3-0.6-0.5c-6.9-5.1-10.5-13.7-6.8-19c0.2-0.2,0.3-0.4,0.5-0.6c2.1-2.5,6.1-4.1,12.4-4
			C204.2,176.1,211.6,194.2,209.2,208.4z M197.7,196.6c-0.3,0.2-0.7,0.3-1.1,0.3c-1.1,0-2-0.9-2-2c0-1.1,0.9-2,2-2
			c0.2,0,0.4,0,0.6,0.1C197.3,194.3,197.5,195.4,197.7,196.6z"/>
		<path class="st2" d="M118.7,211.3c2.5-4.5,5.9-8.4,9.8-11.7l-18-24.7C110.4,174.9,109.9,195.5,118.7,211.3z"/>
	</g>
	<g>
		<path class="st2" d="M113.3,229.4c0.3-4.7,1.4-9.1,3-13.3l-15.2-14c-0.8,4.1-1.6,8.9-2.1,13.9
			C104.3,222.1,110.4,227.1,113.3,229.4z"/>
		<path class="st6" d="M148.7,274.4C148.7,274.4,148.7,274.4,148.7,274.4c-14.4-4.4-24.4-10.2-31.3-23.1c0,0-6.7,0.1-13.1,0.9
			C110.7,265,123.9,274.6,148.7,274.4z"/>
		<path class="st2" d="M115.2,245.1c-1.5-5-1.8-8.4-1.9-10.2l-14.5-6.6c0.2,4.9,0.8,9.8,2,14.6C104.7,244.1,109.4,244.9,115.2,245.1
			z"/>
		<path class="st1" d="M99.1,215.9c0.4-5,1.2-9.7,2.1-13.9L91,192.7C88.2,200.2,93,208.8,99.1,215.9z"/>
		<path class="st9" d="M93.6,257.5c8.4,11.6,35.7,26.1,55.1,16.9c-24.8,0.2-37.9-9.4-44.4-22.2C97.6,253,91.4,254.5,93.6,257.5z"/>
		<path class="st1" d="M100.8,242.9c-1.2-4.7-1.9-9.7-2-14.6l-15.6-7.1C83.1,221.3,81.4,236.9,100.8,242.9z"/>
	</g>
	<g>
		<path class="st5" d="M119.6,153.8c0,0-0.5-0.5-1.5-1.3c-0.8-0.3-1.6-0.6-2.4-0.9C117,152.3,118.3,153.1,119.6,153.8z"/>
		<path class="st5" d="M75.6,88.3c-0.2-0.3-0.3-0.6-0.4-0.8C71.3,86,71.3,86,71.3,86S72.9,86.8,75.6,88.3z"/>
		<path class="st5" d="M196.4,225.4c-0.3-3.5-1.5-6.4-3.1-8.9C194.7,219.3,195.7,222.3,196.4,225.4z"/>
		<path class="st9" d="M200.4,208.3c-2.3,2.7-3.4,2.2-2.9-1.5c-1.1,0.6-2.4,0.9-3.8,0.9c-0.2,0-0.4,0-0.6,0
			c8,10.5,6.2,20.5,6.2,20.5s4.9-16.7,2.1-21.2C201.1,207.5,200.7,207.9,200.4,208.3z"/>
		<path class="st9" d="M184.2,176.9c0.1-0.1,0.2-0.3,0.3-0.4c-4.2,0.9-5.8,3-6.6,4c-3.7,5.3-0.1,14,6.8,19c0.2,0.2,0.4,0.3,0.6,0.5
			c-0.1-0.4-0.1-0.9-0.1-1.3c0-2.3,0.9-4.5,2.2-6.1C182.9,187.7,181.2,181,184.2,176.9z"/>
		<path class="st10" d="M115.7,151.6C75.9,127.7,53.3,78,53.3,78l-4.7-2.3C52.2,116.9,85.1,139.4,115.7,151.6z"/>
		<path class="st11" d="M184.5,176.5c0.1,0,0.2,0,0.3-0.1"/>
	</g>
	<g>
		<path class="st6" d="M69.9,290.5l2.7-0.3l3.4,6.7l0,0l1.9-7.3l2.5-0.3l-3.2,11.1l-1.9,0.2L69.9,290.5z"/>
		<path class="st6" d="M85.4,294.2c-0.1-0.9,0-1.6,0.2-2.4c0.2-0.7,0.6-1.3,1-1.9c0.5-0.5,1-1,1.7-1.3c0.7-0.3,1.4-0.5,2.3-0.6
			c0.8-0.1,1.6,0,2.3,0.2c0.7,0.2,1.4,0.5,1.9,1s1,1,1.3,1.7c0.3,0.7,0.6,1.4,0.6,2.3c0.1,0.9,0,1.6-0.2,2.4c-0.2,0.7-0.6,1.3-1,1.9
			c-0.5,0.5-1,1-1.7,1.3c-0.7,0.3-1.4,0.5-2.3,0.6c-0.8,0.1-1.6,0-2.3-0.2c-0.7-0.2-1.4-0.5-1.9-1c-0.6-0.4-1-1-1.3-1.7
			C85.7,295.8,85.5,295.1,85.4,294.2z M87.8,294c0,0.5,0.2,1,0.4,1.4c0.2,0.4,0.4,0.7,0.8,1c0.3,0.3,0.7,0.5,1.1,0.6
			c0.4,0.1,0.9,0.2,1.4,0.1c0.5,0,0.9-0.2,1.3-0.4c0.4-0.2,0.7-0.5,1-0.8c0.3-0.3,0.5-0.7,0.6-1.1c0.1-0.4,0.2-0.9,0.1-1.4
			c0-0.5-0.2-0.9-0.4-1.3c-0.2-0.4-0.4-0.8-0.8-1c-0.3-0.3-0.7-0.5-1.1-0.6c-0.4-0.1-0.9-0.2-1.4-0.1c-0.5,0-0.9,0.2-1.3,0.4
			c-0.4,0.2-0.7,0.5-1,0.8c-0.3,0.3-0.5,0.7-0.6,1.1C87.8,293,87.8,293.5,87.8,294z"/>
		<path class="st6" d="M111.4,293.5c0,0.6,0,1.2-0.2,1.8c-0.2,0.5-0.4,1-0.8,1.4c-0.4,0.4-0.8,0.7-1.4,1c-0.5,0.3-1.2,0.4-1.9,0.4
			c-0.7,0-1.4,0-2-0.2c-0.6-0.2-1.1-0.5-1.5-0.8c-0.4-0.4-0.7-0.8-0.9-1.3c-0.2-0.5-0.4-1.1-0.4-1.7l-0.4-6.5l2.3-0.1l0.4,6.5
			c0,0.3,0.1,0.6,0.2,0.9c0.1,0.3,0.3,0.5,0.5,0.7c0.2,0.2,0.4,0.3,0.7,0.4c0.3,0.1,0.6,0.1,0.9,0.1c0.3,0,0.6-0.1,0.8-0.2
			c0.3-0.1,0.5-0.3,0.6-0.5c0.2-0.2,0.3-0.5,0.4-0.8c0.1-0.3,0.1-0.6,0.1-0.9l-0.4-6.5l2.3-0.1L111.4,293.5z"/>
		<path class="st6" d="M127.1,296.3c-0.7,0.4-1.4,0.7-2.1,0.9c-0.7,0.2-1.5,0.3-2.3,0.3c-0.8,0-1.6-0.1-2.3-0.3
			c-0.7-0.2-1.3-0.6-1.9-1.1c-0.5-0.5-0.9-1-1.3-1.7c-0.3-0.7-0.5-1.5-0.5-2.3c0-0.9,0.1-1.6,0.4-2.3c0.3-0.7,0.6-1.3,1.1-1.8
			c0.5-0.5,1.1-0.9,1.8-1.2c0.7-0.3,1.5-0.4,2.3-0.5c0.9,0,1.6,0,2.4,0.2c0.7,0.2,1.4,0.5,1.9,1l-1.6,1.9c-0.3-0.3-0.7-0.6-1.1-0.7
			c-0.4-0.2-0.9-0.2-1.5-0.2c-0.5,0-1,0.1-1.4,0.3c-0.4,0.2-0.7,0.4-1,0.8c-0.3,0.3-0.5,0.7-0.6,1.1c-0.1,0.4-0.2,0.9-0.2,1.4
			c0,0.5,0.1,1,0.3,1.4c0.2,0.4,0.4,0.8,0.7,1.1c0.3,0.3,0.7,0.5,1.1,0.7c0.4,0.2,0.9,0.2,1.4,0.2c0.5,0,1-0.1,1.3-0.2
			c0.4-0.1,0.7-0.3,0.9-0.4l-0.1-1.7l-1.9,0.1l-0.1-2.2l4.2-0.1L127.1,296.3z"/>
		<path class="st6" d="M132.9,286.3l2.4,0l0.1,8.5l4.4,0l0,2.2l-6.7,0.1L132.9,286.3z"/>
		<path class="st6" d="M148.5,286.2l1.9,0l4.4,10.8l-2.7-0.1l-0.9-2.3l-4.1-0.1l-0.9,2.2l-2.6-0.1L148.5,286.2z M149.3,289.4
			l-1.4,3.3l2.6,0.1L149.3,289.4z"/>
		<path class="st6" d="M159.9,286.5l2.4,0.1l-0.4,10.7l-2.4-0.1L159.9,286.5z"/>
		<path class="st6" d="M173.5,289.7c-0.2-0.3-0.4-0.4-0.7-0.6c-0.3-0.1-0.6-0.2-0.9-0.2c-0.2,0-0.3,0-0.5,0c-0.2,0-0.4,0.1-0.5,0.2
			c-0.2,0.1-0.3,0.2-0.4,0.3c-0.1,0.1-0.2,0.3-0.2,0.5c0,0.3,0.1,0.6,0.3,0.8c0.2,0.2,0.5,0.3,0.9,0.5c0.4,0.1,0.7,0.3,1.2,0.4
			c0.4,0.1,0.8,0.3,1.2,0.6c0.4,0.2,0.6,0.6,0.9,0.9c0.2,0.4,0.3,0.9,0.3,1.5c0,0.6-0.2,1.1-0.4,1.5c-0.2,0.4-0.6,0.8-1,1.1
			c-0.4,0.3-0.8,0.5-1.3,0.6c-0.5,0.1-1,0.2-1.6,0.1c-0.7,0-1.3-0.2-1.9-0.4c-0.6-0.2-1.1-0.6-1.6-1.1l1.8-1.8
			c0.2,0.3,0.5,0.6,0.9,0.8c0.4,0.2,0.7,0.3,1.1,0.3c0.2,0,0.4,0,0.6,0c0.2,0,0.4-0.1,0.5-0.2c0.2-0.1,0.3-0.2,0.4-0.3
			c0.1-0.1,0.2-0.3,0.2-0.5c0-0.3-0.1-0.6-0.3-0.8c-0.2-0.2-0.5-0.4-0.9-0.5c-0.4-0.2-0.8-0.3-1.2-0.5c-0.4-0.2-0.8-0.3-1.2-0.6
			c-0.4-0.2-0.7-0.5-0.9-0.9c-0.2-0.4-0.3-0.9-0.3-1.5c0-0.6,0.2-1.1,0.4-1.5c0.3-0.4,0.6-0.8,1-1c0.4-0.3,0.8-0.5,1.3-0.6
			c0.5-0.1,1-0.2,1.5-0.1c0.6,0,1.2,0.1,1.7,0.3c0.6,0.2,1,0.5,1.5,0.9L173.5,289.7z"/>
		<path class="st6" d="M180.9,287.6l2.3,0.2l-0.8,10.7l-2.3-0.2L180.9,287.6z"/>
		<path class="st6" d="M189.4,288.2l7.2,0.6l-0.2,2.2l-4.9-0.4l-0.2,2l4.6,0.4l-0.2,2.2l-4.6-0.4l-0.2,2.2l5.2,0.5l-0.2,2.2
			l-7.5-0.7L189.4,288.2z"/>
		<path class="st6" d="M202.7,289.5l3.2,0.4l3.7,7.9l0,0l0.9-7.4l2.3,0.3l-1.2,10.6l-3.1-0.4l-3.8-8.1l0,0l-0.9,7.6l-2.3-0.3
			L202.7,289.5z"/>
	</g>
	<g>
		<path class="st1" d="M79.4,372.8l3.1-0.4l0.6,5.2l6-0.7l-0.6-5.2l3.1-0.4l1.6,14.1l-3.1,0.4l-0.7-6.1l-6,0.7l0.7,6.1l-3.1,0.4
			L79.4,372.8z"/>
		<path class="st1" d="M101.7,370.5l2.6-0.2l7.2,13.6l-3.5,0.3l-1.4-2.9l-5.5,0.4l-0.9,3.1l-3.4,0.3L101.7,370.5z M103.2,374.5
			l-1.4,4.5l3.5-0.3L103.2,374.5z"/>
		<path class="st1" d="M114.4,369.6l4.2-0.2l6.4,9.6l0,0l-0.4-9.8l3.1-0.1l0.6,14.1l-4.1,0.2l-6.6-9.8l0,0l0.4,10.1l-3.1,0.1
			L114.4,369.6z"/>
		<path class="st1" d="M133.3,368.9l4.7,0c1.1,0,2.2,0.1,3.2,0.4c1,0.2,1.9,0.7,2.7,1.2c0.8,0.6,1.4,1.3,1.8,2.2
			c0.4,0.9,0.7,2,0.7,3.3c0,1.1-0.2,2.2-0.6,3c-0.4,0.9-1,1.6-1.7,2.2c-0.7,0.6-1.6,1-2.5,1.4c-1,0.3-2,0.5-3,0.5l-5.1,0
			L133.3,368.9z M136.4,380.2l1.6,0c0.7,0,1.4-0.1,2-0.2c0.6-0.1,1.2-0.4,1.6-0.7c0.5-0.3,0.8-0.8,1.1-1.3c0.3-0.6,0.4-1.2,0.4-2
			c0-0.7-0.1-1.3-0.4-1.8c-0.3-0.5-0.6-0.9-1.1-1.3c-0.4-0.3-1-0.6-1.6-0.7c-0.6-0.2-1.2-0.2-1.9-0.2l-1.8,0L136.4,380.2z"/>
		<path class="st1" d="M151,369l5.3,0.2c0.6,0,1.2,0.1,1.8,0.2c0.6,0.1,1.2,0.3,1.7,0.6c0.5,0.3,0.9,0.7,1.2,1.1
			c0.3,0.5,0.4,1.1,0.4,1.9c0,0.8-0.3,1.5-0.7,2c-0.5,0.5-1.1,0.9-1.8,1.1l0,0c0.5,0.1,0.9,0.2,1.3,0.4c0.4,0.2,0.7,0.5,1,0.8
			c0.3,0.3,0.5,0.7,0.6,1.1c0.1,0.4,0.2,0.8,0.2,1.3c0,0.7-0.2,1.4-0.5,1.9c-0.3,0.5-0.8,0.9-1.3,1.2c-0.5,0.3-1.1,0.5-1.7,0.6
			c-0.6,0.1-1.3,0.2-1.9,0.1l-5.8-0.2L151,369z M153.8,380.6l2.8,0.1c0.2,0,0.5,0,0.7-0.1c0.2,0,0.5-0.1,0.7-0.3
			c0.2-0.1,0.4-0.3,0.5-0.5c0.1-0.2,0.2-0.5,0.2-0.8c0-0.3-0.1-0.6-0.2-0.8c-0.2-0.2-0.4-0.4-0.6-0.5c-0.2-0.1-0.5-0.2-0.8-0.2
			c-0.3,0-0.6-0.1-0.8-0.1l-2.4-0.1L153.8,380.6z M154,374.7l2.3,0.1c0.2,0,0.5,0,0.7-0.1c0.2,0,0.4-0.1,0.6-0.2
			c0.2-0.1,0.3-0.3,0.5-0.5c0.1-0.2,0.2-0.4,0.2-0.7c0-0.3,0-0.5-0.2-0.7c-0.1-0.2-0.3-0.4-0.5-0.5c-0.2-0.1-0.4-0.2-0.7-0.3
			c-0.3-0.1-0.5-0.1-0.7-0.1l-2.1-0.1L154,374.7z"/>
		<path class="st1" d="M171.2,369.8l2.6,0.2l5.2,14.5l-3.5-0.2l-1-3.1l-5.5-0.4l-1.4,2.9l-3.4-0.2L171.2,369.8z M172.2,374l-2,4.3
			l3.5,0.2L172.2,374z"/>
		<path class="st1" d="M183.9,370.7l3.1,0.3l-1,11.2l5.8,0.5l-0.3,2.9l-8.9-0.8L183.9,370.7z"/>
		<path class="st1" d="M197.1,372l3.1,0.4l-1.3,11.2l5.7,0.7l-0.3,2.9l-8.8-1.1L197.1,372z"/>
	</g>
	<path class="st5" d="M190.9,318h-0.1l-2.8,16.9l-1.6,8.4c3.1,0.3,6.1,0.6,9.2,0.9l-1.8-9.3L190.9,318z"/>
	<path class="st5" d="M161.3,317.3h-6.9v18.2h6.5c2.3-1.9,4-5.5,4-9.6C164.8,322.1,163,318.7,161.3,317.3z"/>
	<path class="st12" d="M64.5,347.4l0.1-0.3c-0.2,0-0.4,0.1-0.5,0.1l0,0.3H64.5z"/>
	<path class="st6" d="M139.6,350.5c0.1-0.6,0.1-1.1,0.1-1.8c0-2.1-1-4.7-2.2-7.2c-3.9,0-7.7,0.1-11.6,0.2l5,8.9"/>
	<path class="st13" d="M226.8,357.6c-0.9-0.1-1.7-0.3-2.6-0.4L226.8,357.6L226.8,357.6z"/>
	<path class="st12" d="M226.8,357.6c-0.9-0.1-1.7-0.3-2.6-0.4L226.8,357.6L226.8,357.6z"/>
	<path class="st6" d="M71,308.6l-4,23.5l-2.4,14.9l-0.1,0.3h-0.4l0-0.3l-2.4-15l-4-23.5H47.1l8.1,39.9l1.8,8.8l0.1,0.6l1.7,8.2
		c3.8-0.6,7.6-1.2,11.4-1.7l1.8-8.7l0.1-0.6l1.9-9.3l7.5-37.2H71z"/>
	<path class="st6" d="M235.9,354.4c-0.1-1.5-0.5-2.8-1.2-4.5c-0.5-1.4-1.3-3-2.4-5.2l-11.6-26.9l0.2-0.4h14v-8.7h-17.4
		c-5,2.1-6.3,6.8-6.3,10.2c0,2.4,1.2,5.3,2.8,8.3l9,20.7l4.1,9.4l-0.2,0.4l0,0.1l-2.5-0.5c-4.1-0.7-8.3-1.3-12.5-1.9v0.6v8.5
		c6.6,0.9,13.2,2,19.7,3.2c1.7-1.4,3.3-4.3,4.1-7.8c0-0.2,0.1-0.4,0.1-0.6C235.9,357.7,236,356.1,235.9,354.4z"/>
	<path class="st6" d="M136.1,338.9l-11.6-21.2l0.2-0.4h14v-8.7h-17.4c-5,2.1-6.3,6.8-6.3,10.2c0,2.4,1.2,5.3,2.8,8.3l8.1,14.6l5,8.9
		l0,0l-0.2,0.4l-1.5,0.2c-4.5,0.1-9.1,0.3-13.6,0.5v1.3v7.1c6.2-0.3,12.5-0.5,18.8-0.6l0.5,0c2.2-1.5,4.1-4.3,4.7-8.4
		c0-0.2,0-0.4,0.1-0.6c0.1-0.6,0.1-1.1,0.1-1.8c0-2.1-1-4.7-2.2-7.2C137,340.6,136.5,339.8,136.1,338.9z"/>
	<path class="st6" d="M164.2,308.6h-19.7v32.9v9v0.6v8.4c3.3,0,6.5,0.1,9.8,0.2v-8.4v-0.6V344h8.8c1.4-0.5,2.7-1.2,3.8-2
		c5.5-3.7,7.9-10.2,7.9-16.4C174.9,317.7,170.8,311.4,164.2,308.6z M160.8,335.5h-6.5v-18.2h6.9c1.7,1.4,3.6,4.8,3.6,8.6
		C164.8,329.9,163.1,333.6,160.8,335.5z"/>
	<path class="st6" d="M95.9,353v-0.6v-9v-5.5h14.4v-8.4H95.9v-12.1H112v-8.7H85.9v35.8v9.1v0.6v8.4c8.7-1,17.5-1.7,26.4-2.2v-8.4
		c-2.4,0.1-4.8,0.3-7.1,0.4C102.1,352.5,99,352.8,95.9,353z"/>
	<path class="st6" d="M207.1,354.7l-1.7-9.3l-6.7-36.8h-15l-6.6,34.1l-1.7,8.9l-0.1,0.6l-1.6,8.3c3.3,0.2,6.5,0.5,9.8,0.7l1.6-8.3
		l0.1-0.6c4,0.3,8.1,0.7,12.1,1.2l0.1,0.6l1.7,8.6c3.3,0.4,6.6,0.8,9.9,1.2l-1.6-8.7L207.1,354.7z M186.4,343.4l1.6-8.4l2.8-16.9
		h0.1l2.8,16.9l1.8,9.3C192.5,343.9,189.4,343.7,186.4,343.4z"/>
	<g>
		<path class="st6" d="M234,349.7c-0.8-0.1-1.6-0.3-2.4-0.4C232.4,349.4,233.2,349.6,234,349.7z"/>
		<path class="st6" d="M54.1,343.1c-12,3.8-18.2,6.3-30,11.3c11.9-2.5,18.9-3.9,31.1-5.9l0,0l4.3-3.6L54.1,343.1z"/>
		<path class="st6" d="M234.7,349.9C234.7,349.9,234.7,349.9,234.7,349.9c9.5,1.7,15.5,2.6,24.9,4.9c-10.5-4.4-17.3-7.2-27.4-10.4
			l0.1,0.3c0.7,1.4-0.9-0.3-0.5,0.7c0,0,0,2.8,0,2.8C232.1,348.7,234.5,349.3,234.7,349.9z"/>
		<path class="st6" d="M55.2,348.5L55.2,348.5c0.3,0,0.5-0.1,0.8-0.1C55.7,348.4,55.5,348.5,55.2,348.5z"/>
		<path class="st6" d="M234,349.7c0.2,0,0.5,0.1,0.7,0.1c0,0,0,0,0,0C234.5,349.8,234.3,349.8,234,349.7z"/>
	</g>
	<polygon points="119.3,252.7 98.7,266 87.3,252.7 89.7,247 114.3,248.7 119.7,249.3 	"/>
	<g>
		<path class="st14" d="M195.2,344.2c-2.8-0.3-5.7-0.6-8.6-0.8C189.6,343.7,192.4,343.9,195.2,344.2z"/>
		<path class="st15" d="M64.6,347.1L64.6,347.1c-0.2,0-0.4,0-0.5,0.1l0,0C64.2,347.1,64.4,347.1,64.6,347.1z"/>
		<path class="st14" d="M64.1,347.4h0.4l0.1-0.3c-0.2,0-0.4,0.1-0.5,0.1L64.1,347.4z"/>
		<path class="st15" d="M64.1,347.4h0.4l0.1-0.3c-0.2,0-0.4,0.1-0.5,0.1L64.1,347.4z"/>
		<path class="st14" d="M226.8,357.6c-0.9-0.1-1.7-0.3-2.6-0.4L226.8,357.6L226.8,357.6z"/>
		<path class="st15" d="M226.8,357.6c-0.9-0.1-1.7-0.3-2.6-0.4L226.8,357.6L226.8,357.6z"/>
		<path class="st15" d="M226.8,357.6c-0.9-0.1-1.7-0.3-2.6-0.4L226.8,357.6L226.8,357.6z"/>
		<path class="st14" d="M63.7,347.2c-2.7,0.4-5.5,0.8-8.2,1.3C58.2,348,60.9,347.6,63.7,347.2z"/>
		<path class="st14" d="M73.2,345.8c-2.7,0.4-5.4,0.7-8.1,1.1C67.8,346.6,70.5,346.2,73.2,345.8z"/>
		<path class="st14" d="M55.2,348.5L55.2,348.5c0.1,0,0.2,0,0.3,0C55.4,348.5,55.3,348.5,55.2,348.5z"/>
		<path class="st14" d="M64,347.1L64,347.1c-0.1,0-0.3,0-0.4,0.1C63.8,347.2,63.9,347.2,64,347.1z"/>
		<path class="st14" d="M74,345.7L74,345.7c-0.2,0-0.5,0.1-0.7,0.1C73.5,345.8,73.7,345.8,74,345.7z"/>
		<path class="st14" d="M65.1,347c-0.2,0-0.4,0-0.5,0.1l0,0C64.7,347,64.9,347,65.1,347z"/>
		<path class="st14" d="M228.3,348.7c-1.5-0.3-3-0.5-4.5-0.7C225.3,348.2,226.8,348.5,228.3,348.7z"/>
		<path class="st14" d="M234.3,349.8c-1.4-0.3-2.8-0.5-4.2-0.7C231.5,349.3,232.9,349.5,234.3,349.8z"/>
		<path class="st14" d="M222.9,347.9L222.9,347.9c0.3,0,0.6,0.1,0.9,0.1C223.5,347.9,223.2,347.9,222.9,347.9z"/>
		<path class="st14" d="M234.7,349.9C234.7,349.9,234.7,349.9,234.7,349.9c-0.1,0-0.3-0.1-0.4-0.1
			C234.4,349.8,234.6,349.8,234.7,349.9z"/>
		<path class="st14" d="M230,349c-0.6-0.1-1.1-0.2-1.7-0.3C228.9,348.8,229.5,348.9,230,349z"/>
		<path class="st14" d="M235.9,354.4c-0.1-1.5-0.5-2.8-1.2-4.5c-0.1,0-0.3-0.1-0.4-0.1c-1.4-0.3-2.8-0.5-4.2-0.7
			c-0.6-0.1-1.1-0.2-1.7-0.3c-1.5-0.3-3-0.5-4.5-0.7c-0.3,0-0.6-0.1-0.9-0.1l4.1,9.4l-0.2,0.4l0,0.1l-2.5-0.5
			c-4.1-0.7-8.3-1.3-12.5-1.9v0.6v8.5c6.6,0.9,13.2,2,19.7,3.2c1.7-1.4,3.3-4.3,4.1-7.8c0-0.2,0.1-0.4,0.1-0.6
			C235.9,357.7,236,356.1,235.9,354.4z"/>
		<path class="st14" d="M130.5,341.6c-1.4,0-2.8,0.1-4.2,0.1C127.7,341.6,129.1,341.6,130.5,341.6z"/>
		<path class="st14" d="M136.8,341.5c-1.5,0-3,0-4.5,0.1C133.8,341.5,135.3,341.5,136.8,341.5z"/>
		<path class="st14" d="M132.3,341.5c-0.6,0-1.2,0-1.8,0C131.1,341.5,131.7,341.5,132.3,341.5z"/>
		<path class="st14" d="M125.8,341.7L125.8,341.7c0.2,0,0.3,0,0.5,0C126.1,341.7,126,341.7,125.8,341.7z"/>
		<path class="st14" d="M137.4,341.5C137.4,341.5,137.4,341.5,137.4,341.5c-0.2,0-0.4,0-0.7,0C137,341.5,137.2,341.5,137.4,341.5z"
			/>
		<path class="st14" d="M137.4,341.5c-0.2,0-0.4,0-0.7,0c-1.5,0-3,0-4.5,0.1c-0.6,0-1.2,0-1.8,0c-1.4,0-2.8,0.1-4.2,0.1
			c-0.2,0-0.3,0-0.5,0l4.9,8.9l0,0l-0.2,0.4l-1.5,0.2c-4.5,0.1-9.1,0.3-13.6,0.5v1.3v7.1c6.2-0.3,12.5-0.5,18.8-0.6l0.5,0
			c2.2-1.5,4.1-4.3,4.7-8.4c0-0.2,0-0.4,0.1-0.6c0.1-0.6,0.1-1.1,0.1-1.8C139.7,346.6,138.7,344,137.4,341.5z"/>
		<path class="st14" d="M149.7,341.5c-1.5,0-2.9,0-4.4-0.1C146.7,341.5,148.2,341.5,149.7,341.5z"/>
		<path class="st14" d="M155.5,341.6c-1.4,0-2.8-0.1-4.1-0.1C152.8,341.6,154.2,341.6,155.5,341.6z"/>
		<path class="st14" d="M162.5,341.9c-1.4-0.1-2.8-0.1-4.2-0.1C159.7,341.8,161.1,341.8,162.5,341.9z"/>
		<path class="st14" d="M151.4,341.6c-0.6,0-1.2,0-1.7,0C150.2,341.5,150.8,341.5,151.4,341.6z"/>
		<path class="st14" d="M144.5,341.5L144.5,341.5c0.2,0,0.5,0,0.7,0C145,341.5,144.8,341.5,144.5,341.5z"/>
		<path class="st14" d="M167,342.1C167,342.1,167,342.1,167,342.1c-1.5-0.1-3-0.1-4.5-0.2C164,341.9,165.5,342,167,342.1z"/>
		<path class="st14" d="M158.3,341.7c-0.9,0-1.8-0.1-2.8-0.1C156.5,341.7,157.4,341.7,158.3,341.7z"/>
		<path class="st14" d="M162.5,341.9c-1.4-0.1-2.8-0.1-4.2-0.1c-0.9,0-1.8-0.1-2.8-0.1c-1.4,0-2.8-0.1-4.1-0.1c-0.6,0-1.2,0-1.7,0
			c-1.5,0-2.9,0-4.4-0.1c-0.2,0-0.5,0-0.7,0v9v0.6v8.4c3.3,0,6.5,0.1,9.8,0.2v-8.4v-0.6V344h8.8c1.4-0.5,2.7-1.2,3.8-2
			C165.5,342,164,341.9,162.5,341.9z"/>
		<path class="st14" d="M95.6,343.4c-3.1,0.3-6.2,0.6-9.3,0.9C89.4,344,92.5,343.7,95.6,343.4z"/>
		<path class="st14" d="M95.9,343.4L95.9,343.4c-0.1,0-0.2,0-0.3,0C95.7,343.4,95.8,343.4,95.9,343.4z"/>
		<path class="st14" d="M85.9,344.3L85.9,344.3c0.1,0,0.2,0,0.3,0C86.1,344.3,86,344.3,85.9,344.3z"/>
		<g>
			<path class="st14" d="M65.1,347c-0.2,0-0.4,0.1-0.5,0.1l-0.1,0.3h-0.4l0-0.2c-0.1,0-0.3,0-0.4,0.1c-2.7,0.4-5.5,0.8-8.2,1.3
				c-0.1,0-0.2,0-0.3,0l1.8,8.8l0.1,0.6l1.7,8.2c3.8-0.6,7.6-1.2,11.4-1.7l1.8-8.7l0.1-0.6l1.9-9.3c-0.2,0-0.5,0.1-0.7,0.1
				C70.5,346.2,67.8,346.6,65.1,347z"/>
			<path class="st14" d="M105.2,352.3c-3.1,0.2-6.2,0.5-9.3,0.7v-0.6v-9c-0.1,0-0.2,0-0.3,0c-3.1,0.3-6.2,0.6-9.3,0.9
				c-0.1,0-0.2,0-0.3,0v9v0.6v8.4c8.7-1,17.5-1.7,26.4-2.2v-8.4C109.9,352,107.5,352.2,105.2,352.3z"/>
		</g>
		<path class="st14" d="M186.4,343.4L186.4,343.4c0.1,0,0.2,0,0.3,0C186.6,343.4,186.5,343.4,186.4,343.4z"/>
		<path class="st14" d="M195.2,344.2c0.1,0,0.2,0,0.3,0l0,0C195.5,344.3,195.3,344.2,195.2,344.2z"/>
		<path class="st14" d="M204.8,345.3c-2.9-0.3-5.7-0.7-8.6-1C199.1,344.6,202,345,204.8,345.3z"/>
		<path class="st14" d="M185.7,343.3c-2.7-0.2-5.4-0.4-8.1-0.6C180.3,342.9,183,343.1,185.7,343.3z"/>
		<path class="st14" d="M195.6,344.3c0.2,0,0.4,0,0.7,0.1C196,344.3,195.8,344.3,195.6,344.3L195.6,344.3z"/>
		<path class="st14" d="M185.7,343.3c0.2,0,0.5,0,0.7,0.1l0,0C186.1,343.4,185.9,343.4,185.7,343.3z"/>
		<path class="st14" d="M177,342.7L177,342.7c0.2,0,0.4,0,0.6,0C177.4,342.7,177.2,342.7,177,342.7z"/>
		<path class="st14" d="M205.4,345.4L205.4,345.4c-0.2,0-0.4,0-0.6-0.1C205,345.3,205.2,345.4,205.4,345.4z"/>
		<path class="st14" d="M207.2,355.3l-0.1-0.6l-1.7-9.3c-0.2,0-0.4,0-0.6-0.1c-2.9-0.3-5.7-0.7-8.6-1c-0.2,0-0.4,0-0.7-0.1
			c-0.1,0-0.2,0-0.3,0c-2.8-0.3-5.7-0.6-8.6-0.8c-0.1,0-0.2,0-0.3,0c-0.2,0-0.5,0-0.7-0.1c-2.7-0.2-5.4-0.4-8.1-0.6
			c-0.2,0-0.4,0-0.6,0l-1.7,8.9l-0.1,0.6l-1.6,8.3c3.3,0.2,6.5,0.5,9.8,0.7l1.6-8.3l0.1-0.6c4,0.3,8.1,0.7,12.1,1.2l0.1,0.6l1.7,8.6
			c3.3,0.4,6.6,0.8,9.9,1.2L207.2,355.3z"/>
	</g>
</g>
</svg>
